HIERARCHY
ROOT Hips
{
  OFFSET 53.31 85.4638 -4.15198
  CHANNELS 6 Xposition Yposition Zposition Zrotation Xrotation Yrotation
  JOINT spine
  {
    OFFSET 0 6.3926 0.367606
    CHANNELS 3 Zrotation Xrotation Yrotation
    JOINT spine1
    {
      OFFSET 0 9.17611 0
      CHANNELS 3 Zrotation Xrotation Yrotation
      JOINT spine2
      {
        OFFSET 0 8.79238 0
        CHANNELS 3 Zrotation Xrotation Yrotation
        JOINT Neck
        {
          OFFSET 0 22.5737 1.07624
          CHANNELS 3 Zrotation Xrotation Yrotation
          JOINT Head
          {
            OFFSET 0 6.82011 0
            CHANNELS 3 Zrotation Xrotation Yrotation
            End Site
            {
              OFFSET 0 16.5085 -5.44427
            }
          }
        }
        JOINT RightShoulder
        {
          OFFSET -3.70221 9.49509 -0.515508
          CHANNELS 3 Zrotation Xrotation Yrotation
          JOINT RightArm
          {
            OFFSET 0 12.4537 0
            CHANNELS 3 Zrotation Xrotation Yrotation
            JOINT RightArmRoll
            {
              OFFSET 0 6.28685 0
              CHANNELS 3 Zrotation Xrotation Yrotation
              JOINT RightForeArm
              {
                OFFSET 0 18.3114 0
                CHANNELS 3 Zrotation Xrotation Yrotation
                JOINT RightForeArmRoll
                {
                  OFFSET 0 7.05482 0
                  CHANNELS 3 Zrotation Xrotation Yrotation
                  JOINT RightHand
                  {
                    OFFSET 0 14.1575 0
                    CHANNELS 3 Zrotation Xrotation Yrotation
                    End Site
                    {
                      OFFSET 0 0 0
                    }
                  }
                }
              }
            }
          }
        }
        JOINT LeftShoulder
        {
          OFFSET 3.70221 9.49509 -0.515508
          CHANNELS 3 Zrotation Xrotation Yrotation
          JOINT LeftArm
          {
            OFFSET 0 12.4537 0
            CHANNELS 3 Zrotation Xrotation Yrotation
            JOINT LeftArmRoll
            {
              OFFSET 0 6.28686 0
              CHANNELS 3 Zrotation Xrotation Yrotation
              JOINT LeftForeArm
              {
                OFFSET 0 18.3114 0
                CHANNELS 3 Zrotation Xrotation Yrotation
                JOINT LeftForeArmRoll
                {
                  OFFSET 0 7.05483 0
                  CHANNELS 3 Zrotation Xrotation Yrotation
                  JOINT LeftHand
                  {
                    OFFSET 0 14.1575 0
                    CHANNELS 3 Zrotation Xrotation Yrotation
                    End Site
                    {
                      OFFSET 0 0 0
                    }
                  }
                }
              }
            }
          }
        }
      }
    }
  }
  JOINT RightUpLeg
  {
    OFFSET -5.66616 -1.03903 -0.87161
    CHANNELS 3 Zrotation Xrotation Yrotation
    JOINT RightUpLegRoll
    {
      OFFSET 0 16.6005 0
      CHANNELS 3 Zrotation Xrotation Yrotation
      JOINT RightLeg
      {
        OFFSET 0 -20.5572 0
        CHANNELS 3 Zrotation Xrotation Yrotation
        JOINT RightLegRoll
        {
          OFFSET 0 20.6244 0
          CHANNELS 3 Zrotation Xrotation Yrotation
          JOINT RightFoot
          {
            OFFSET 0 17.1664 0
            CHANNELS 3 Zrotation Xrotation Yrotation
            JOINT RightToeBase
            {
              OFFSET 0 14.3502 0
              CHANNELS 3 Zrotation Xrotation Yrotation
              End Site
              {
                OFFSET 0.00608252 6.9497 -0.801061
              }
            }
          }
        }
      }
    }
  }
  JOINT LeftUpLeg
  {
    OFFSET 5.66616 -1.03903 -0.87161
    CHANNELS 3 Zrotation Xrotation Yrotation
    JOINT LeftUpLegRoll
    {
      OFFSET 0 16.6006 0
      CHANNELS 3 Zrotation Xrotation Yrotation
      JOINT LeftLeg
      {
        OFFSET 0 20.5571 0
        CHANNELS 3 Zrotation Xrotation Yrotation
        JOINT LeftLegRoll
        {
          OFFSET 0 20.8151 0
          CHANNELS 3 Zrotation Xrotation Yrotation
          JOINT LeftFoot
          {
            OFFSET 0 16.9757 0
            CHANNELS 3 Zrotation Xrotation Yrotation
            JOINT LeftToeBase
            {
              OFFSET 0 14.3502 0
              CHANNELS 3 Zrotation Xrotation Yrotation
              End Site
              {
                OFFSET -0.0272592 6.94971 -0.801061
              }
            }
          }
        }
      }
    }
  }
}
MOTION
Frames: 4
Frame Time: 0.00208333
56.5973 86.1411 7.09249 2.0933 13.1045 -1.18589 -1.45843 -2.29761 -0.526413 -2.92894 -0.582261 -0.921073 -2.91841 1.06146 -0.87222 2.11904 10.599 1.28174 4.01776 -7.43217 2.56134 52.7792 -6.34518 -3.61564 104.179 1.60323 15.0938 9.06361e-007 -4.38007e-009 -3.32039e-006 12.0506 0.0961115 -1.0025 6.41821e-006 -4.29427e-006 -3.06095 8.029 -4.95141 0.697699 -45.5674 -11.8496 7.72569 -109.93 -4.09431 -3.56048 4.91995e-006 -3.04725e-006 3.96775e-006 -13.4035 19.9186 3.02978 -4.35586e-006 -2.81467e-006 3.00527 -8.02886 -4.95145 -0.697693 175.066 31.0461 2.27347 180 7.01596e-015 179.164 176.279 35.8056 179.805 -3.8928e-006 3.13341e-006 0.479449 -19.0929 68.7562 20.2109 8.92861 35.849 -3.87815 -179.208 26.1717 1.75725 4.54188e-006 -4.6773e-006 -0.868775 -2.96876 -30.1713 -0.269488 -8.9549e-007 -4.00094e-006 -0.502345 18.962 68.773 -20.2024 -8.75308 33.6958 3.78079 
56.6339 84.8812 7.07924 2.20504 13.2454 -1.16119 -1.49727 -2.27069 -0.531451 -3.00649 -0.528096 -0.926992 -2.99594 1.11556 -0.876853 2.43335 10.2178 1.20552 3.85 -7.45078 2.55063 52.9364 -6.39302 -3.65836 104.221 1.81049 15.0098 9.06361e-007 -4.38005e-009 -3.32039e-006 12.0515 0.0959651 -1.01601 6.41821e-006 -4.29427e-006 -3.06225 8.029 -4.95141 0.697699 -45.4777 -11.7634 7.65921 -110.101 -3.91912 -3.5764 4.91994e-006 -3.04725e-006 3.96775e-006 -13.2664 20.0055 3.02382 -4.35586e-006 -2.81467e-006 3.00527 -8.02886 -4.95145 -0.697693 174.904 31.726 2.46499 180 7.01594e-015 179.151 176.429 37.2489 179.768 -3.8928e-006 3.1334e-006 0.509523 -19.166 68.812 20.2628 9.04526 37.2225 -3.94586 -179.215 26.9675 1.53065 4.54188e-006 -4.6773e-006 -0.875137 -3.23504 -31.6926 -0.370655 -8.9549e-007 -4.00094e-006 -0.555812 19.3554 69.2431 -20.6296 -8.84245 34.8091 3.82949 
56.6549 84.2267 6.93741 2.30401 13.3878 -1.13171 -1.53387 -2.2424 -0.534748 -3.07951 -0.471242 -0.929585 -3.069 1.17234 -0.878236 2.76066 9.81852 1.12648 3.66889 -7.46278 2.53472 53.0873 -6.45676 -3.71144 104.277 2.03076 14.9215 9.06361e-007 -4.38005e-009 -3.32039e-006 12.0482 0.0957931 -1.02972 6.41821e-006 -4.29427e-006 -3.06358 8.029 -4.95141 0.697699 -45.3724 -11.6628 7.57875 -110.292 -3.73582 -3.58378 4.91994e-006 -3.04725e-006 3.96775e-006 -13.1246 20.0993 3.01735 -4.35586e-006 -2.81467e-006 3.00527 -8.02886 -4.95145 -0.697693 174.754 32.4139 2.65392 180 7.01592e-015 179.138 176.578 38.6895 179.733 -3.8928e-006 3.1334e-006 0.542755 -19.2724 68.9078 20.3493 9.15971 38.5242 -4.01452 -179.209 27.7834 1.29689 4.54188e-006 -4.6773e-006 -0.881843 -3.49315 -33.2259 -0.470405 -8.9549e-007 -4.00093e-006 -0.611103 19.7746 69.7244 -21.0861 -8.93031 35.8761 3.87867 
56.6781 84.2621 6.87776 2.38874 13.5318 -1.09659 -1.56794 -2.21283 -0.536113 -3.14737 -0.411911 -0.928501 -3.13694 1.23162 -0.876027 3.10052 9.40181 1.04482 3.47367 -7.46875 2.51287 53.2305 -6.53782 -3.77565 104.349 2.26423 14.8302 9.06361e-007 -4.38005e-009 -3.32039e-006 12.0391 0.0955902 -1.04378 6.41821e-006 -4.29427e-006 -3.06498 8.029 -4.95141 0.697699 -45.2504 -11.5463 7.48252 -110.502 -3.5446 -3.58062 4.91995e-006 -3.04725e-006 3.96775e-006 -12.9794 20.2007 3.01045 -4.35586e-006 -2.81467e-006 3.00527 -8.02886 -4.95145 -0.697693 174.617 33.1091 2.8397 180 7.01589e-015 179.125 176.72 40.1162 179.7 -3.8928e-006 3.13341e-006 0.579506 -19.4193 69.0515 20.4784 9.26885 39.7239 -4.08194 -179.191 28.6188 1.05996 4.54188e-006 -4.6773e-006 -0.888856 -3.73634 -34.7605 -0.566583 -8.9549e-007 -4.00093e-006 -0.668012 20.2183 70.2133 -21.5709 -9.01461 36.8748 3.92701 
